<?xml version="1.0" standalone="no"?>
<!DOCTYPE svg PUBLIC "-//W3C//DTD SVG 20010904//EN"
 "http://www.w3.org/TR/2001/REC-SVG-20010904/DTD/svg10.dtd">
<svg version="1.0" xmlns="http://www.w3.org/2000/svg"
 width="1000.000000pt" height="1000.000000pt" viewBox="0 0 1000.000000 1000.000000"
 preserveAspectRatio="xMidYMid meet">

<g transform="translate(0.000000,1000.000000) scale(0.100000,-0.100000)"
fill="#000000" stroke="none">
<path d="M1574 9601 c-41 -25 -72 -65 -84 -111 -9 -33 -14 -38 -50 -44 -36 -6
-39 -8 -31 -29 7 -18 15 -21 44 -19 30 2 36 -1 46 -27 25 -58 105 -111 169
-111 42 0 124 45 149 82 60 89 27 214 -69 264 -40 21 -136 18 -174 -5z"/>
<path d="M8244 9601 c-41 -25 -71 -65 -85 -111 -10 -34 -16 -39 -51 -44 -31
-5 -39 -10 -34 -22 3 -9 6 -20 6 -25 0 -5 17 -7 39 -3 34 5 39 4 44 -17 14
-55 107 -119 172 -119 43 0 107 32 138 69 71 85 52 205 -42 268 -44 30 -141
32 -187 4z"/>
<path d="M3510 9567 c0 -22 -67 -93 -101 -107 l-31 -13 33 -18 c39 -20 72 -52
92 -91 l14 -28 28 44 c16 26 46 54 71 68 l44 24 -41 18 c-29 13 -50 33 -72 67
-32 52 -37 57 -37 36z"/>
<path d="M3880 9565 c0 -22 -66 -91 -101 -106 l-31 -12 33 -18 c39 -20 72 -52
92 -91 l14 -28 28 44 c16 26 46 54 71 68 l44 24 -41 18 c-29 13 -50 33 -72 67
-32 53 -37 57 -37 34z"/>
<path d="M5356 9557 c-7 -30 -64 -87 -100 -100 l-29 -10 35 -18 c40 -20 98
-82 98 -104 0 -8 5 -15 10 -15 6 0 10 7 10 15 0 22 58 84 99 105 l36 18 -27 7
c-31 8 -108 86 -108 110 0 23 -17 18 -24 -8z"/>
<path d="M6453 9532 c-21 -35 -43 -55 -72 -68 l-40 -18 47 -27 c30 -17 55 -42
71 -69 l23 -41 15 28 c21 40 61 80 95 94 l30 12 -28 15 c-41 21 -84 62 -98 95
l-13 28 -30 -49z"/>
<path d="M1905 9419 c-8 -24 -10 -22 43 -38 47 -13 62 -9 62 18 0 14 -12 22
-44 30 -57 14 -54 15 -61 -10z"/>
<path d="M8577 9433 c-4 -3 -7 -14 -7 -23 0 -13 14 -21 46 -29 52 -13 49 -14
58 15 6 19 1 23 -38 33 -53 13 -51 13 -59 4z"/>
<path d="M1283 9404 c-37 -14 -41 -18 -34 -37 10 -25 12 -26 67 -8 35 11 40
17 36 37 -5 27 -11 28 -69 8z"/>
<path d="M7952 9403 c-37 -13 -42 -18 -36 -36 4 -12 7 -23 9 -24 4 -6 95 30
95 37 0 15 -12 40 -19 39 -3 0 -25 -7 -49 -16z"/>
<path d="M2065 9370 c-4 -12 -5 -22 -3 -24 40 -24 82 -35 94 -25 20 17 17 27
-13 42 -55 28 -71 29 -78 7z"/>
<path d="M8737 9383 c-17 -16 -4 -41 28 -56 45 -22 52 -21 65 3 9 16 6 22 -17
33 -40 21 -68 28 -76 20z"/>
<path d="M1138 9340 c-46 -25 -51 -32 -34 -55 13 -18 15 -17 52 5 21 13 41 25
42 26 6 4 -9 44 -16 44 -4 -1 -24 -10 -44 -20z"/>
<path d="M7803 9337 c-44 -21 -52 -34 -32 -54 9 -9 23 -6 55 10 48 23 50 26
32 49 -12 15 -17 14 -55 -5z"/>
<path d="M2215 9300 c-8 -26 -4 -31 40 -55 37 -19 37 -19 51 0 13 17 10 21
-31 47 -54 33 -52 33 -60 8z"/>
<path d="M8881 9301 c-15 -26 -17 -23 34 -51 39 -22 47 -23 55 -10 14 22 9 30
-37 57 -41 24 -42 24 -52 4z"/>
<path d="M995 9248 c-22 -16 -39 -35 -37 -41 8 -29 23 -29 62 -2 44 30 45 33
27 57 -12 15 -16 13 -52 -14z"/>
<path d="M7650 9240 c-33 -27 -34 -30 -18 -46 17 -18 22 -16 97 42 7 6 -21 34
-33 34 -6 0 -27 -14 -46 -30z"/>
<path d="M2349 9204 c-12 -14 -8 -21 26 -50 37 -31 41 -32 58 -16 18 16 17 18
-17 49 -41 38 -48 39 -67 17z"/>
<path d="M9019 9204 c-11 -13 -7 -21 24 -51 30 -31 38 -35 51 -24 23 19 20 27
-16 61 -38 34 -41 35 -59 14z"/>
<path d="M4616 9187 c-7 -30 -64 -87 -100 -100 l-29 -10 35 -18 c40 -20 98
-82 98 -104 0 -8 5 -15 10 -15 6 0 10 7 10 15 0 21 58 84 97 103 l34 18 -41
18 c-39 17 -90 76 -90 103 0 22 -17 14 -24 -10z"/>
<path d="M4990 9197 c0 -25 -50 -82 -91 -103 l-40 -21 30 -13 c35 -14 101 -83
101 -105 0 -8 5 -15 10 -15 6 0 10 7 10 15 0 22 58 84 98 104 l35 18 -30 10
c-37 13 -91 67 -99 99 -6 25 -24 33 -24 11z"/>
<path d="M5360 9197 c0 -27 -51 -86 -90 -103 l-41 -18 34 -18 c39 -19 97 -82
97 -103 0 -8 5 -15 10 -15 6 0 10 7 10 15 0 22 58 84 98 104 l35 18 -29 10
c-36 13 -93 70 -100 100 -7 24 -24 32 -24 10z"/>
<path d="M5713 9162 c-22 -35 -43 -55 -72 -68 l-42 -18 34 -18 c39 -19 97 -82
97 -103 0 -8 5 -15 10 -15 6 0 10 6 10 13 0 21 60 87 98 106 35 18 36 19 11
26 -32 10 -88 63 -103 98 l-13 28 -30 -49z"/>
<path d="M6461 9172 c-21 -41 -82 -92 -111 -92 -8 0 6 -12 31 -26 28 -16 57
-43 74 -70 l28 -44 14 28 c21 39 53 71 92 92 35 17 35 17 10 25 -32 10 -88 63
-104 99 l-13 30 -21 -42z"/>
<path d="M860 9135 c-32 -33 -33 -35 -16 -54 18 -20 19 -20 53 17 25 27 32 41
26 51 -16 25 -28 22 -63 -14z"/>
<path d="M7532 9137 c-36 -37 -40 -52 -15 -61 11 -4 27 4 49 25 28 27 31 34
21 50 -16 25 -18 24 -55 -14z"/>
<path d="M2478 9094 c-16 -16 -15 -20 13 -56 26 -32 34 -36 50 -28 26 14 24
21 -13 64 -31 35 -34 36 -50 20z"/>
<path d="M9142 9098 c-19 -19 -15 -32 21 -65 29 -28 34 -30 51 -18 18 14 18
16 -15 54 -38 45 -40 46 -57 29z"/>
<path d="M751 9005 c-30 -42 -31 -44 -12 -55 11 -5 22 -10 24 -10 7 0 61 80
56 83 -2 1 -11 8 -20 15 -13 10 -21 5 -48 -33z"/>
<path d="M7421 9009 c-23 -32 -28 -46 -20 -56 18 -21 32 -15 61 26 27 37 27
39 9 55 -18 16 -20 15 -50 -25z"/>
<path d="M9247 8965 c-18 -13 -18 -15 8 -60 24 -39 29 -44 44 -33 9 7 18 13
20 15 3 2 -48 93 -52 93 -1 0 -10 -7 -20 -15z"/>
<path d="M2573 8958 c-8 -9 -3 -25 16 -56 25 -39 28 -41 47 -27 19 14 19 15
-2 52 -23 41 -45 52 -61 31z"/>
<path d="M682 8897 c-20 -26 -43 -78 -37 -87 13 -22 42 -9 60 28 11 20 21 39
22 42 2 3 -6 11 -16 17 -15 9 -21 9 -29 0z"/>
<path d="M7331 8870 c-26 -47 -26 -56 -1 -70 17 -9 22 -5 44 38 l25 49 -23 11
c-21 9 -25 6 -45 -28z"/>
<path d="M1582 8879 c-130 -23 -236 -81 -326 -180 -244 -270 -159 -702 169
-859 410 -198 865 148 784 596 -6 32 -28 96 -49 141 -103 213 -350 342 -578
302z"/>
<path d="M8254 8881 c-287 -45 -497 -310 -470 -593 16 -174 107 -324 251 -418
361 -234 845 25 849 455 1 161 -49 280 -164 395 -105 106 -204 151 -355 164
-33 2 -83 1 -111 -3z"/>
<path d="M3511 8827 c-1 -25 -77 -104 -109 -112 l-27 -7 35 -18 c40 -21 72
-53 93 -92 l14 -28 28 45 c17 26 45 53 70 66 l42 22 -41 22 c-37 19 -50 33
-93 101 -11 18 -12 18 -12 1z"/>
<path d="M4251 8829 c-1 -27 -50 -83 -92 -105 l-40 -21 31 -13 c33 -14 100
-85 100 -107 0 -7 5 -13 10 -13 6 0 10 7 10 15 0 22 65 91 100 105 l29 12 -42
22 c-38 20 -51 34 -94 102 -9 15 -12 16 -12 3z"/>
<path d="M4990 8827 c0 -27 -51 -86 -90 -103 l-41 -18 34 -18 c39 -19 97 -82
97 -103 0 -8 5 -15 10 -15 6 0 10 7 10 15 0 21 58 84 97 103 l34 18 -41 18
c-39 17 -90 76 -90 103 0 7 -4 13 -10 13 -5 0 -10 -6 -10 -13z"/>
<path d="M5343 8791 c-22 -34 -43 -54 -72 -67 l-42 -18 34 -18 c39 -19 97 -82
97 -103 0 -8 5 -15 10 -15 6 0 10 6 10 13 0 21 60 87 98 106 35 18 36 19 11
26 -41 13 -76 43 -97 85 l-19 40 -30 -49z"/>
<path d="M6091 8802 c-21 -41 -82 -92 -111 -92 -8 -1 1 -9 21 -20 41 -22 99
-83 99 -105 0 -8 5 -15 10 -15 6 0 10 6 10 13 0 21 60 87 98 106 35 18 36 19
11 26 -32 10 -88 63 -104 99 l-13 30 -21 -42z"/>
<path d="M6461 8802 c-21 -41 -82 -92 -111 -92 -8 0 6 -12 31 -26 28 -16 57
-43 74 -70 l28 -44 14 28 c21 39 53 71 92 92 35 17 35 17 10 25 -32 10 -88 63
-104 99 l-13 30 -21 -42z"/>
<path d="M2658 8819 c-16 -9 -16 -13 4 -54 22 -45 32 -52 55 -37 8 5 6 20 -9
55 -22 50 -24 52 -50 36z"/>
<path d="M9327 8817 c-17 -11 -17 -14 0 -54 18 -42 44 -56 58 -32 8 12 -22 99
-34 99 -4 0 -15 -6 -24 -13z"/>
<path d="M600 8725 c-23 -60 -23 -72 1 -78 13 -4 24 -5 24 -4 1 1 9 22 18 46
13 35 14 47 4 53 -22 14 -37 8 -47 -17z"/>
<path d="M7265 8716 c-20 -48 -19 -63 6 -69 22 -6 39 24 42 73 3 41 -31 38
-48 -4z"/>
<path d="M2715 8660 c-9 -14 4 -88 16 -96 5 -3 18 -3 28 1 17 5 18 10 7 53
-12 46 -36 66 -51 42z"/>
<path d="M9383 8662 c-19 -12 6 -102 29 -102 26 0 31 21 18 69 -10 40 -23 49
-47 33z"/>
<path d="M556 8575 c-3 -9 -6 -25 -6 -35 0 -14 -11 -22 -40 -30 -46 -12 -95
-51 -115 -91 -19 -36 -19 -132 -1 -167 50 -96 175 -129 262 -70 39 26 84 107
84 150 0 64 -53 144 -111 169 -26 10 -29 16 -27 48 3 30 0 36 -18 39 -13 2
-24 -4 -28 -13z"/>
<path d="M7227 8583 c-4 -3 -7 -16 -7 -28 0 -26 -15 -40 -53 -49 -15 -4 -45
-23 -67 -42 -61 -56 -76 -134 -40 -210 64 -132 258 -133 326 -2 45 88 -6 218
-100 251 -14 6 -17 15 -14 42 3 23 -1 36 -10 40 -18 7 -27 6 -35 -2z"/>
<path d="M2730 8509 c-51 -16 -88 -46 -111 -91 -25 -49 -27 -124 -5 -166 17
-33 66 -77 96 -87 15 -5 20 -15 20 -41 0 -29 3 -34 24 -34 19 0 25 6 28 28 2
22 11 29 45 40 53 17 109 72 124 121 40 135 -88 269 -221 230z"/>
<path d="M9387 8505 c-22 -7 -50 -24 -64 -37 -32 -29 -63 -94 -63 -133 0 -65
64 -158 118 -172 20 -5 23 -11 20 -39 -3 -27 0 -33 19 -37 23 -4 33 9 33 43 0
12 13 21 45 30 53 15 106 68 125 124 30 91 -32 199 -128 226 -47 13 -58 12
-105 -5z"/>
<path d="M3881 8459 c-1 -27 -50 -83 -92 -105 l-40 -21 31 -13 c33 -14 100
-85 100 -107 0 -7 5 -13 10 -13 6 0 10 7 10 15 0 22 65 91 100 105 l29 12 -42
22 c-38 20 -51 34 -94 102 -9 15 -12 16 -12 3z"/>
<path d="M4621 8460 c-2 -31 -51 -89 -91 -106 l-41 -18 35 -18 c36 -19 96 -84
96 -105 0 -7 5 -13 10 -13 6 0 10 7 10 15 0 22 65 91 100 105 l29 12 -42 22
c-38 20 -51 34 -94 102 -9 15 -12 16 -12 4z"/>
<path d="M4990 8457 c0 -26 -51 -85 -90 -104 l-40 -21 30 -12 c34 -14 100 -83
100 -105 0 -8 5 -15 10 -15 6 0 10 7 10 15 0 22 66 91 100 105 l30 12 -40 21
c-39 19 -90 78 -90 104 0 7 -4 13 -10 13 -5 0 -10 -6 -10 -13z"/>
<path d="M5351 8431 c-21 -40 -82 -91 -111 -91 -8 -1 1 -9 21 -20 41 -22 99
-83 99 -105 0 -8 5 -15 10 -15 6 0 10 6 10 13 0 21 60 86 98 107 21 10 30 19
22 20 -30 0 -88 49 -108 91 l-21 41 -20 -41z"/>
<path d="M578 8093 c-21 -5 -21 -3 -7 -59 10 -37 15 -44 35 -44 13 0 24 5 24
11 0 21 -23 99 -29 98 -3 -1 -14 -3 -23 -6z"/>
<path d="M3881 8090 c-2 -31 -51 -89 -91 -106 l-41 -18 35 -18 c36 -19 96 -84
96 -105 0 -7 5 -13 10 -13 6 0 10 7 10 15 0 22 65 91 100 105 l29 12 -42 22
c-38 20 -51 34 -94 102 -9 15 -12 16 -12 4z"/>
<path d="M4251 8090 c-2 -29 -50 -88 -91 -107 l-40 -21 30 -12 c33 -14 100
-85 100 -107 0 -7 5 -13 10 -13 6 0 10 7 10 15 0 22 65 91 100 105 l29 12 -42
22 c-38 20 -51 34 -94 102 -9 15 -12 16 -12 4z"/>
<path d="M4981 8064 c-13 -36 -80 -94 -110 -94 -9 -1 0 -10 21 -20 38 -21 98
-86 98 -107 0 -7 5 -13 10 -13 6 0 10 6 10 13 0 21 60 86 98 107 21 10 30 19
21 20 -30 0 -97 58 -110 94 -7 20 -16 36 -19 36 -3 0 -12 -16 -19 -36z"/>
<path d="M5721 8061 c-21 -40 -82 -91 -111 -91 -8 -1 1 -9 21 -20 41 -22 99
-83 99 -105 0 -8 5 -15 10 -15 6 0 10 6 10 13 0 21 60 86 98 107 21 10 30 19
22 20 -30 0 -88 49 -108 91 l-21 41 -20 -41z"/>
<path d="M7248 8093 c-21 -5 -23 -27 -7 -72 10 -28 36 -41 51 -26 7 7 -10 88
-20 96 -4 3 -15 4 -24 2z"/>
<path d="M2700 8005 c-23 -60 -23 -72 1 -78 13 -4 24 -5 25 -4 8 12 31 97 26
101 -14 15 -43 4 -52 -19z"/>
<path d="M9362 7991 c-16 -52 -15 -58 9 -64 21 -6 34 15 46 76 5 24 2 27 -19
27 -20 0 -27 -7 -36 -39z"/>
<path d="M621 7931 c-11 -7 -9 -17 7 -55 22 -48 27 -52 51 -37 12 8 11 16 -5
55 -19 46 -28 53 -53 37z"/>
<path d="M7293 7933 c-17 -6 -16 -26 4 -68 17 -36 28 -41 52 -26 11 7 9 17 -7
55 -21 46 -25 49 -49 39z"/>
<path d="M2633 7836 c-16 -32 -19 -46 -10 -55 20 -20 33 -12 55 34 21 44 21
45 2 55 -26 14 -23 15 -47 -34z"/>
<path d="M9300 7839 c-17 -32 -19 -44 -9 -55 19 -23 28 -17 51 32 19 39 20 46
8 54 -24 15 -28 12 -50 -31z"/>
<path d="M698 7778 c-15 -12 -13 -17 11 -56 25 -39 29 -41 46 -28 20 14 20 15
-2 52 -25 45 -33 49 -55 32z"/>
<path d="M7362 7777 c-8 -9 -4 -24 14 -55 22 -36 28 -41 45 -32 24 13 24 14
-3 61 -23 41 -38 48 -56 26z"/>
<path d="M2546 7699 c-27 -38 -27 -42 -12 -57 16 -16 19 -15 46 18 33 39 36
50 18 68 -17 17 -20 16 -52 -29z"/>
<path d="M9212 7697 c-29 -41 -30 -44 -11 -55 25 -16 23 -17 53 26 31 45 31
48 7 61 -15 9 -23 3 -49 -32z"/>
<path d="M3506 7707 c-8 -33 -68 -95 -101 -103 -23 -6 -22 -7 23 -37 29 -20
55 -48 69 -75 19 -38 22 -41 28 -21 10 32 71 95 105 109 l29 12 -42 22 c-38
20 -57 41 -93 102 -10 17 -11 16 -18 -9z"/>
<path d="M5351 7691 c-21 -40 -82 -91 -111 -91 -8 -1 1 -9 21 -20 41 -22 99
-83 99 -105 0 -8 5 -15 10 -15 6 0 10 6 10 13 0 21 60 86 98 107 21 10 30 19
22 20 -30 0 -88 49 -108 91 l-21 41 -20 -41z"/>
<path d="M5721 7691 c-21 -40 -82 -91 -111 -91 -8 -1 1 -9 21 -20 41 -22 99
-83 99 -105 0 -8 5 -15 10 -15 6 0 10 6 10 13 0 21 60 86 98 107 21 10 30 19
22 20 -30 0 -88 49 -108 91 l-21 41 -20 -41z"/>
<path d="M791 7646 c-14 -17 -5 -40 31 -73 20 -19 25 -20 42 -8 17 13 16 16
-15 54 -36 45 -41 48 -58 27z"/>
<path d="M7457 7642 c-16 -17 -14 -21 21 -55 36 -36 39 -37 54 -20 15 17 14
21 -18 56 -19 20 -36 37 -38 37 -1 0 -10 -8 -19 -18z"/>
<path d="M2440 7575 c-31 -32 -33 -37 -19 -50 19 -19 37 -12 67 26 20 24 22
32 12 44 -17 21 -22 19 -60 -20z"/>
<path d="M9107 7572 c-36 -37 -37 -39 -19 -55 17 -16 20 -15 55 21 36 37 37
39 19 55 -17 16 -20 15 -55 -21z"/>
<path d="M906 7522 c-15 -17 -14 -20 7 -38 50 -44 56 -47 72 -34 22 18 19 25
-24 59 -37 29 -39 30 -55 13z"/>
<path d="M7576 7521 c-16 -17 -15 -20 19 -50 41 -36 51 -38 64 -13 7 14 2 24
-29 49 -36 31 -38 31 -54 14z"/>
<path d="M8985 7465 c-37 -31 -39 -35 -23 -51 15 -15 18 -15 52 11 38 29 44
46 23 63 -9 8 -23 2 -52 -23z"/>
<path d="M2310 7460 c-33 -27 -34 -30 -18 -46 17 -18 22 -16 97 42 7 6 -21 34
-33 34 -6 0 -27 -14 -46 -30z"/>
<path d="M1041 7427 c-20 -20 -12 -34 31 -60 42 -25 43 -25 56 -5 8 10 12 21
11 22 -2 2 -23 15 -45 29 -31 19 -44 23 -53 14z"/>
<path d="M7703 7417 c-10 -21 -7 -26 32 -50 37 -22 45 -24 55 -11 18 20 8 36
-37 61 l-40 23 -10 -23z"/>
<path d="M1635 7400 c-77 -17 -124 -61 -144 -138 -17 -61 1 -116 53 -168 48
-49 111 -65 177 -45 49 15 104 71 121 124 9 28 19 43 33 45 61 9 66 12 59 35
-3 12 -7 23 -8 24 -1 1 -18 -2 -39 -7 -36 -8 -38 -7 -57 30 -23 45 -71 88
-108 96 -50 10 -57 10 -87 4z"/>
<path d="M8315 7403 c-53 -9 -67 -15 -99 -44 -46 -40 -71 -105 -62 -161 24
-152 208 -210 309 -98 20 21 41 57 47 79 8 32 16 41 33 41 47 0 64 10 59 35
-4 22 -8 24 -48 18 -37 -5 -45 -3 -50 13 -27 72 -118 129 -189 117z"/>
<path d="M2185 7379 c-16 -10 -34 -20 -39 -22 -5 -2 -4 -13 3 -25 11 -21 13
-22 44 -6 52 26 58 34 46 55 -12 23 -16 23 -54 -2z"/>
<path d="M8848 7379 c-39 -20 -45 -33 -29 -58 7 -12 17 -9 55 13 40 23 45 29
36 46 -13 24 -15 24 -62 -1z"/>
<path d="M3511 7350 c-2 -30 -51 -88 -92 -108 -36 -18 -40 -22 -23 -28 40 -14
87 -58 104 -98 l19 -40 11 29 c14 38 64 90 101 105 l28 12 -42 22 c-38 20 -51
34 -94 102 -9 15 -12 16 -12 4z"/>
<path d="M4246 7337 c-8 -34 -68 -95 -101 -103 -25 -6 -24 -7 18 -34 43 -27
87 -77 87 -99 0 -6 5 -11 10 -11 6 0 10 7 10 15 0 22 65 91 100 105 l29 12
-42 22 c-38 20 -57 41 -93 102 -10 17 -11 16 -18 -9z"/>
<path d="M4981 7324 c-13 -36 -80 -94 -110 -94 -9 -1 0 -10 21 -20 38 -21 98
-86 98 -107 0 -7 5 -13 10 -13 6 0 10 6 10 13 0 21 60 86 98 107 21 10 30 19
21 20 -30 0 -97 58 -110 94 -7 20 -16 36 -19 36 -3 0 -12 -16 -19 -36z"/>
<path d="M5721 7321 c-21 -40 -82 -91 -111 -91 -8 -1 1 -9 21 -20 41 -22 99
-83 99 -105 0 -8 5 -15 10 -15 6 0 10 5 10 11 0 22 44 72 88 100 25 16 39 29
31 29 -28 0 -87 49 -107 91 l-21 41 -20 -41z"/>
<path d="M6461 7323 c-21 -42 -81 -93 -111 -93 -8 -1 -1 -8 15 -17 45 -23 86
-64 102 -102 l15 -34 18 40 c17 39 64 83 104 97 17 6 13 10 -22 27 -42 21 -74
57 -91 100 -8 23 -9 22 -30 -18z"/>
<path d="M1181 7331 c-8 -14 -7 -20 2 -24 6 -3 29 -12 50 -21 37 -16 38 -16
46 6 7 20 3 25 -32 40 -49 22 -54 22 -66 -1z"/>
<path d="M7846 7334 c-9 -24 -9 -24 40 -46 38 -16 48 -18 55 -7 15 24 10 35
-26 52 -44 21 -61 21 -69 1z"/>
<path d="M2033 7313 c-30 -10 -43 -20 -43 -33 0 -28 13 -31 64 -14 34 12 46
20 42 31 -3 8 -6 19 -6 24 0 11 -6 11 -57 -8z"/>
<path d="M8705 7314 c-51 -19 -58 -26 -42 -48 12 -17 15 -17 59 1 41 16 45 20
37 41 -5 12 -10 22 -11 21 -2 0 -21 -7 -43 -15z"/>
<path d="M1336 7274 c-9 -22 -1 -29 51 -41 46 -12 53 -9 53 18 0 22 -7 27 -57
35 -33 5 -41 3 -47 -12z"/>
<path d="M8003 7274 c-3 -8 -2 -19 3 -24 9 -8 86 -32 90 -27 1 1 4 12 8 23 5
18 1 24 -25 33 -44 15 -69 14 -76 -5z"/>
<path d="M3881 6980 c-2 -30 -51 -88 -92 -108 -36 -18 -40 -22 -23 -28 40 -14
87 -58 104 -98 l19 -40 11 29 c14 38 64 90 101 105 l28 12 -42 22 c-38 20 -51
34 -94 102 -9 15 -12 16 -12 4z"/>
<path d="M4251 6980 c-2 -30 -51 -88 -92 -108 -42 -21 -42 -21 -18 -31 38 -14
85 -57 99 -91 13 -32 30 -40 30 -15 0 22 65 91 100 105 l29 12 -42 22 c-38 20
-51 34 -94 102 -9 15 -12 16 -12 4z"/>
<path d="M4612 6956 c-14 -37 -58 -78 -102 -94 -24 -9 -24 -9 13 -27 39 -18
97 -80 97 -102 0 -7 5 -13 10 -13 6 0 10 6 10 13 0 22 67 93 99 107 l30 12
-42 22 c-37 20 -57 42 -92 101 -9 15 -12 12 -23 -19z"/>
<path d="M4981 6954 c-13 -36 -80 -94 -110 -94 -9 -1 0 -10 21 -20 38 -21 98
-86 98 -107 0 -7 5 -13 10 -13 6 0 10 6 10 13 0 23 63 89 99 105 36 15 36 15
11 24 -44 16 -88 57 -101 93 -7 19 -16 35 -19 35 -3 0 -12 -16 -19 -36z"/>
<path d="M6091 6953 c-21 -42 -81 -93 -111 -93 -8 -1 -1 -8 15 -17 45 -23 86
-64 102 -102 l15 -34 18 40 c17 39 64 83 104 97 17 6 13 10 -22 27 -42 21 -74
57 -91 100 -8 23 -9 22 -30 -18z"/>
<path d="M6462 6955 c-24 -48 -46 -69 -91 -88 l-33 -14 31 -13 c35 -14 96 -77
106 -110 7 -21 9 -19 25 17 17 39 65 83 104 97 17 6 13 10 -22 27 -42 21 -74
57 -91 100 -8 23 -9 22 -29 -16z"/>
<path d="M545 6601 c-10 -32 -65 -92 -98 -106 l-28 -12 49 -30 c35 -22 55 -43
68 -72 l18 -41 24 44 c14 25 42 55 68 71 l44 28 -28 14 c-39 21 -71 53 -92 92
-17 33 -18 34 -25 12z"/>
<path d="M1285 6599 c-10 -32 -63 -88 -99 -104 l-30 -13 42 -21 c41 -21 92
-82 92 -111 0 -8 12 5 26 29 25 46 43 62 98 93 25 14 27 17 11 18 -29 0 -92
55 -114 98 -18 35 -19 36 -26 11z"/>
<path d="M2770 6608 c0 -27 -50 -86 -91 -106 l-41 -21 41 -20 c40 -21 91 -82
91 -111 1 -8 8 -1 17 15 23 45 64 86 102 102 l34 15 -40 18 c-38 17 -93 75
-93 98 0 6 -4 14 -10 17 -5 3 -10 0 -10 -7z"/>
<path d="M3140 6608 c0 -27 -50 -86 -91 -106 -36 -18 -40 -22 -23 -28 39 -14
87 -58 104 -97 16 -36 18 -38 25 -17 10 33 71 96 106 110 l30 13 -39 17 c-38
17 -92 75 -92 98 0 6 -4 14 -10 17 -5 3 -10 0 -10 -7z"/>
<path d="M4242 6586 c-13 -37 -57 -77 -102 -95 -24 -8 -24 -9 -5 -16 41 -16
88 -59 105 -99 19 -40 19 -40 28 -15 16 40 63 90 100 106 l34 14 -43 22 c-39
20 -58 40 -94 102 -9 15 -12 12 -23 -19z"/>
<path d="M6462 6585 c-24 -48 -46 -69 -92 -89 l-34 -14 34 -15 c42 -18 85 -61
100 -102 l12 -30 14 35 c20 46 41 68 88 92 l38 19 -41 21 c-41 20 -73 56 -90
99 -8 23 -9 22 -29 -16z"/>
<path d="M7565 6571 c-18 -28 -46 -54 -72 -67 l-43 -22 29 -12 c33 -13 82 -63
104 -105 9 -16 16 -23 17 -15 0 29 51 90 91 111 l41 20 -41 21 c-40 19 -73 55
-88 95 -7 17 -12 13 -38 -26z"/>
<path d="M8691 6592 c-17 -40 -87 -102 -115 -102 -18 -1 -16 -4 10 -18 55 -31
73 -47 98 -93 14 -24 26 -37 26 -29 0 29 51 90 92 111 l42 21 -30 13 c-35 15
-84 66 -99 102 l-11 27 -13 -32z"/>
<path d="M9431 6592 c-14 -34 -54 -74 -93 -95 l-28 -14 44 -28 c26 -16 54 -46
68 -71 l24 -44 18 41 c13 29 33 50 67 72 l49 30 -28 14 c-39 20 -71 53 -91 92
l-18 33 -12 -30z"/>
<path d="M545 6231 c-10 -32 -65 -92 -98 -106 l-28 -12 49 -30 c35 -22 55 -43
68 -72 l18 -41 24 44 c14 25 42 55 68 71 l44 28 -28 14 c-39 21 -71 53 -92 92
-17 33 -18 34 -25 12z"/>
<path d="M915 6229 c-10 -32 -63 -88 -99 -104 l-30 -13 41 -21 c43 -21 75 -58
88 -100 l8 -25 14 30 c21 39 62 83 97 101 l28 15 -28 15 c-41 21 -73 53 -94
92 -17 35 -17 35 -25 10z"/>
<path d="M1285 6229 c-10 -32 -63 -88 -99 -104 l-30 -13 42 -21 c41 -21 92
-82 92 -111 1 -8 9 1 20 21 22 41 83 99 105 99 8 0 15 5 15 10 0 6 -6 10 -13
10 -21 0 -87 60 -106 98 -18 35 -19 36 -26 11z"/>
<path d="M2030 6240 c0 -30 -49 -88 -91 -108 l-41 -21 41 -20 c40 -21 91 -82
91 -111 1 -8 9 1 20 21 22 41 83 99 105 99 8 0 15 5 15 10 0 6 -6 10 -13 10
-21 0 -86 60 -107 98 -10 21 -19 30 -20 22z"/>
<path d="M3510 6238 c0 -27 -50 -86 -91 -106 l-41 -21 38 -19 c47 -24 68 -46
88 -92 l14 -35 12 30 c15 41 58 84 99 102 l34 15 -40 18 c-38 17 -93 75 -93
98 0 6 -4 14 -10 17 -5 3 -10 0 -10 -7z"/>
<path d="M3881 6240 c-2 -30 -51 -88 -92 -108 -36 -18 -40 -22 -23 -28 40 -14
87 -58 104 -98 l19 -40 11 29 c15 40 58 84 98 102 l34 14 -43 22 c-24 12 -53
36 -64 53 -11 18 -25 40 -32 50 -9 15 -12 16 -12 4z"/>
<path d="M4242 6216 c-13 -37 -58 -77 -102 -94 l-25 -10 26 -10 c39 -15 85
-58 99 -92 13 -30 30 -41 30 -17 0 22 58 84 95 101 l36 18 -43 21 c-38 20 -57
40 -93 102 -9 15 -12 12 -23 -19z"/>
<path d="M6092 6215 c-24 -48 -46 -69 -92 -89 l-34 -14 34 -15 c42 -18 85 -61
100 -102 l11 -29 19 40 c17 40 64 84 104 98 17 6 13 10 -22 27 -42 21 -74 57
-91 100 -8 23 -9 22 -29 -16z"/>
<path d="M6475 6235 c-16 -41 -59 -88 -98 -105 l-40 -18 34 -15 c41 -18 84
-61 99 -102 l12 -30 14 35 c20 46 41 68 88 92 l38 19 -41 21 c-41 20 -73 55
-90 99 -9 23 -9 23 -16 4z"/>
<path d="M7195 6201 c-19 -29 -46 -54 -73 -68 l-44 -22 34 -14 c37 -16 78 -57
101 -102 9 -16 16 -23 17 -15 0 29 51 90 91 111 l41 20 -41 21 c-40 19 -73 55
-88 95 -7 17 -12 13 -38 -26z"/>
<path d="M7575 6214 c-21 -38 -81 -94 -102 -94 -7 0 -13 -4 -13 -10 0 -5 7
-10 15 -10 22 0 83 -58 105 -99 11 -20 19 -29 20 -21 0 29 51 90 91 111 l41
20 -41 21 c-41 20 -73 56 -89 97 -7 19 -9 18 -27 -15z"/>
<path d="M8321 6222 c-15 -35 -86 -102 -108 -102 -7 0 -13 -4 -13 -10 0 -5 7
-10 15 -10 22 0 83 -58 105 -99 11 -20 19 -29 20 -21 0 29 51 90 92 111 l42
21 -30 13 c-36 15 -83 63 -99 101 l-11 28 -13 -32z"/>
<path d="M9061 6223 c-14 -35 -54 -75 -93 -96 l-28 -14 44 -28 c27 -17 54 -46
69 -73 24 -43 25 -44 32 -21 13 42 45 79 88 100 l41 21 -30 13 c-35 15 -84 66
-99 102 l-11 27 -13 -31z"/>
<path d="M9431 6222 c-14 -34 -54 -74 -93 -95 l-28 -14 44 -28 c27 -17 54 -46
69 -73 23 -43 25 -44 32 -21 13 39 44 75 87 99 l41 23 -29 12 c-33 14 -75 57
-96 99 l-15 28 -12 -30z"/>
<path d="M4985 6221 c-11 -35 -48 -73 -88 -91 l-39 -18 36 -17 c38 -18 96 -80
96 -102 0 -7 5 -13 10 -13 6 0 10 6 10 13 0 22 58 84 96 102 l36 17 -39 18
c-40 18 -77 56 -88 91 -4 10 -10 19 -15 19 -5 0 -11 -9 -15 -19z"/>
<path d="M1283 5854 c-13 -36 -59 -83 -97 -99 l-30 -13 42 -21 c41 -21 92 -82
92 -111 1 -8 9 1 20 21 22 41 83 99 105 99 8 0 15 5 15 10 0 6 -6 10 -13 10
-21 0 -86 60 -106 97 l-18 36 -10 -29z"/>
<path d="M2770 5870 c0 -30 -49 -88 -91 -108 l-41 -21 41 -20 c40 -21 91 -82
91 -111 1 -8 9 1 20 21 22 41 83 99 105 99 8 0 15 5 15 10 0 6 -6 10 -13 10
-21 0 -86 60 -107 98 -10 21 -19 30 -20 22z"/>
<path d="M3880 5868 c0 -28 -53 -90 -92 -108 l-41 -18 39 -20 c47 -24 68 -46
88 -92 l14 -35 10 26 c15 39 58 85 98 104 l36 17 -39 18 c-39 17 -93 75 -93
98 0 6 -4 14 -10 17 -5 3 -10 0 -10 -7z"/>
<path d="M4247 5859 c-10 -40 -46 -80 -90 -99 l-40 -18 39 -20 c47 -24 68 -46
88 -92 l14 -35 10 26 c15 39 58 85 97 104 l36 17 -43 21 c-38 20 -56 39 -94
103 -10 17 -11 16 -17 -7z"/>
<path d="M5722 5844 c-24 -47 -46 -68 -91 -87 l-34 -15 37 -17 c40 -19 83 -65
98 -104 9 -25 9 -25 28 15 17 40 64 83 105 98 18 7 16 9 -15 22 -47 20 -70 42
-90 88 l-18 39 -20 -39z"/>
<path d="M6102 5859 c-15 -39 -58 -85 -92 -99 -30 -13 -41 -30 -17 -30 22 0
84 -58 102 -96 l17 -37 15 34 c19 45 40 67 87 91 l39 20 -40 18 c-40 18 -75
56 -92 101 l-9 24 -10 -26z"/>
<path d="M6835 5847 c-18 -39 -80 -97 -102 -97 -7 0 -13 -4 -13 -10 0 -5 7
-10 15 -10 22 0 83 -58 105 -99 11 -20 19 -29 20 -21 0 29 51 90 92 111 l41
21 -40 18 c-40 18 -75 57 -91 101 -9 22 -10 22 -27 -14z"/>
<path d="M7210 5851 c-14 -34 -85 -101 -107 -101 -7 0 -13 -4 -13 -10 0 -5 7
-10 15 -10 22 0 83 -58 105 -99 11 -20 19 -29 20 -21 0 29 51 90 91 111 l41
20 -41 21 c-41 20 -73 56 -89 98 -8 22 -9 22 -22 -9z"/>
<path d="M7580 5851 c-14 -34 -85 -101 -107 -101 -7 0 -13 -4 -13 -10 0 -5 7
-10 15 -10 22 0 83 -58 105 -99 11 -20 19 -29 20 -21 0 29 51 90 91 111 l41
20 -41 21 c-41 20 -73 56 -89 98 -8 22 -9 22 -22 -9z"/>
<path d="M7950 5851 c-14 -34 -85 -101 -107 -101 -7 0 -13 -4 -13 -10 0 -5 7
-10 15 -10 22 0 83 -58 105 -99 11 -20 19 -29 20 -21 0 29 51 90 91 111 l41
20 -41 21 c-41 20 -73 56 -89 98 -8 22 -9 22 -22 -9z"/>
<path d="M8320 5851 c-14 -34 -85 -101 -107 -101 -7 0 -13 -4 -13 -10 0 -5 7
-10 15 -10 22 0 83 -58 105 -99 11 -20 19 -29 20 -21 0 29 51 90 92 111 l42
21 -30 14 c-45 20 -72 45 -92 87 l-19 39 -13 -31z"/>
<path d="M8691 5852 c-15 -35 -86 -102 -108 -102 -7 0 -13 -4 -13 -10 0 -5 7
-10 15 -10 22 0 83 -58 105 -99 11 -20 19 -29 20 -21 0 29 51 90 92 111 l42
21 -30 13 c-35 15 -84 66 -99 102 l-11 27 -13 -32z"/>
<path d="M9431 5852 c-15 -36 -83 -102 -106 -102 -23 0 -18 -17 8 -24 32 -9
64 -39 91 -86 23 -40 24 -41 31 -19 13 39 44 75 87 99 l41 23 -29 12 c-35 15
-84 66 -99 102 l-11 27 -13 -32z"/>
<path d="M1660 5500 c0 -30 -49 -88 -91 -108 l-41 -21 41 -20 c40 -21 91 -82
91 -111 1 -8 9 1 20 21 22 41 83 99 105 99 8 0 15 5 15 10 0 6 -6 10 -13 10
-21 0 -86 60 -107 98 -10 21 -19 30 -20 22z"/>
<path d="M2400 5500 c0 -30 -49 -88 -91 -108 l-41 -21 41 -20 c40 -21 91 -82
91 -111 1 -8 9 1 20 21 22 41 83 99 105 99 8 0 15 5 15 10 0 6 -6 10 -13 10
-21 0 -86 60 -107 98 -10 21 -19 30 -20 22z"/>
<path d="M3140 5498 c0 -28 -53 -90 -92 -108 l-41 -18 41 -21 c41 -21 74 -59
91 -102 8 -23 9 -23 23 12 16 36 82 99 105 99 7 0 13 5 13 10 0 6 -7 10 -15
10 -20 0 -105 85 -105 104 0 8 -4 18 -10 21 -5 3 -10 0 -10 -7z"/>
<path d="M3510 5498 c0 -28 -53 -90 -92 -108 l-41 -18 41 -21 c41 -21 74 -59
91 -102 8 -23 9 -23 23 12 16 36 82 99 105 99 7 0 13 5 13 10 0 6 -7 10 -15
10 -20 0 -105 85 -105 104 0 8 -4 18 -10 21 -5 3 -10 0 -10 -7z"/>
<path d="M4246 5487 c-9 -38 -46 -78 -89 -97 l-40 -18 39 -20 c47 -24 68 -46
88 -92 l14 -35 10 26 c15 39 58 85 98 104 l36 17 -39 18 c-39 17 -93 75 -93
98 0 22 -18 21 -24 -1z"/>
<path d="M5734 5495 c-14 -40 -58 -88 -97 -105 l-39 -18 36 -17 c40 -19 83
-65 98 -104 l10 -26 14 35 c20 46 41 68 88 92 l40 20 -34 15 c-47 19 -70 41
-91 88 -15 34 -19 37 -25 20z"/>
<path d="M7210 5481 c-14 -34 -85 -101 -107 -101 -7 0 -13 -4 -13 -10 0 -5 6
-10 13 -10 21 0 86 -60 107 -98 10 -21 19 -30 20 -22 0 29 51 90 91 111 l41
20 -41 21 c-41 20 -73 56 -89 98 -8 22 -9 22 -22 -9z"/>
<path d="M7950 5481 c-14 -34 -85 -101 -107 -101 -7 0 -13 -4 -13 -10 0 -5 7
-10 15 -10 22 0 83 -58 105 -99 11 -20 19 -29 20 -21 0 29 51 90 91 111 l41
20 -41 21 c-41 20 -73 56 -89 98 -8 22 -9 22 -22 -9z"/>
<path d="M8320 5481 c-14 -34 -85 -101 -107 -101 -7 0 -13 -4 -13 -10 0 -5 7
-10 15 -10 22 0 91 -66 105 -100 l12 -30 21 41 c14 28 37 52 69 72 l48 30 -40
19 c-40 20 -73 56 -88 98 -8 22 -9 22 -22 -9z"/>
<path d="M543 5114 c-13 -36 -70 -93 -100 -100 -29 -8 -29 -20 0 -28 30 -7 87
-64 100 -100 l10 -29 18 35 c20 40 82 98 104 98 8 0 15 5 15 10 0 6 -7 10 -15
10 -22 0 -84 58 -104 98 l-18 35 -10 -29z"/>
<path d="M913 5113 c-13 -37 -67 -91 -99 -99 -30 -8 -31 -20 -1 -28 30 -7 87
-64 100 -100 l10 -29 18 35 c20 40 82 98 104 98 8 0 15 5 15 10 0 6 -7 10 -15
10 -22 0 -84 58 -104 98 l-18 35 -10 -30z"/>
<path d="M2026 5117 c-8 -34 -69 -95 -101 -103 -26 -6 -35 -24 -12 -24 26 0
85 -51 104 -90 l21 -40 12 30 c14 33 85 100 107 100 7 0 13 5 13 10 0 6 -6 10
-13 10 -21 0 -86 60 -106 97 l-18 36 -7 -26z"/>
<path d="M2770 5129 c0 -30 -58 -97 -94 -110 -20 -7 -36 -16 -36 -19 0 -3 16
-12 36 -19 36 -13 94 -80 94 -110 1 -9 10 0 20 21 21 38 86 98 107 98 7 0 13
5 13 10 0 6 -6 10 -13 10 -21 0 -86 60 -107 98 -10 21 -19 30 -20 21z"/>
<path d="M3494 5096 c-18 -35 -55 -71 -97 -90 -9 -5 -9 -7 0 -12 41 -19 80
-55 99 -92 l23 -43 17 36 c17 37 79 95 101 95 7 0 13 5 13 10 0 6 -7 10 -15
10 -20 0 -105 85 -105 104 0 30 -16 22 -36 -18z"/>
<path d="M4235 5096 c-17 -35 -55 -70 -98 -90 -9 -5 -9 -7 0 -12 44 -20 81
-55 100 -93 22 -43 23 -43 32 -19 14 37 57 84 91 98 38 16 38 24 0 40 -32 13
-90 76 -90 97 0 27 -16 18 -35 -21z"/>
<path d="M6094 5105 c-17 -37 -79 -95 -101 -95 -7 0 -13 -4 -13 -10 0 -5 6
-10 13 -10 22 0 84 -58 101 -95 l18 -36 21 43 c19 37 57 72 100 92 9 5 9 7 0
12 -43 20 -81 55 -100 92 l-21 43 -18 -36z"/>
<path d="M6464 5105 c-17 -37 -79 -95 -101 -95 -7 0 -13 -4 -13 -10 0 -5 6
-10 13 -10 22 0 84 -58 101 -95 l17 -36 23 43 c19 37 58 73 99 92 9 5 9 7 0
12 -41 19 -80 55 -99 92 l-23 43 -17 -36z"/>
<path d="M6840 5111 c-14 -34 -85 -101 -107 -101 -7 0 -13 -4 -13 -10 0 -5 6
-10 13 -10 21 0 86 -60 107 -98 10 -21 19 -30 20 -21 0 30 58 97 94 110 20 7
36 16 36 19 0 3 -16 12 -35 19 -35 12 -77 57 -93 100 -8 24 -9 23 -22 -8z"/>
<path d="M7210 5111 c-14 -34 -85 -101 -107 -101 -7 0 -13 -4 -13 -10 0 -5 6
-10 13 -10 21 0 86 -60 107 -98 10 -21 19 -30 20 -21 0 30 58 97 94 110 20 7
36 16 36 19 0 3 -16 12 -35 19 -35 12 -77 57 -93 100 -8 24 -9 23 -22 -8z"/>
<path d="M7580 5111 c-14 -34 -85 -101 -107 -101 -7 0 -13 -4 -13 -10 0 -5 6
-10 13 -10 21 0 86 -60 107 -98 10 -21 19 -30 20 -21 0 30 58 97 94 110 20 7
36 16 36 19 0 3 -16 12 -35 19 -35 12 -77 57 -93 100 -8 24 -9 23 -22 -8z"/>
<path d="M9431 5112 c-15 -36 -83 -102 -106 -102 -8 0 -15 -4 -15 -10 0 -5 7
-10 15 -10 22 0 84 -58 104 -98 l18 -35 10 29 c13 36 70 93 100 100 30 8 29
20 0 28 -30 7 -86 64 -101 101 l-12 29 -13 -32z"/>
<path d="M4975 5093 c-17 -32 -58 -68 -98 -87 -9 -5 -9 -7 0 -12 40 -19 81
-55 98 -87 11 -20 22 -37 25 -37 3 0 14 17 25 37 17 32 58 68 98 87 9 5 9 7 0
12 -40 19 -81 55 -98 87 -11 20 -22 37 -25 37 -3 0 -14 -17 -25 -37z"/>
<path d="M1660 4760 c0 -29 -51 -90 -91 -111 l-41 -20 41 -21 c42 -20 91 -78
91 -108 1 -8 10 1 20 22 21 38 86 98 107 98 7 0 13 5 13 10 0 6 -7 10 -15 10
-22 0 -83 58 -105 99 -11 20 -19 29 -20 21z"/>
<path d="M2030 4760 c0 -29 -51 -90 -91 -111 l-41 -20 41 -21 c42 -20 91 -78
91 -108 1 -8 10 1 20 22 21 38 86 98 107 98 7 0 13 5 13 10 0 6 -7 10 -15 10
-22 0 -83 58 -105 99 -11 20 -19 29 -20 21z"/>
<path d="M3510 4757 c0 -26 -52 -88 -92 -108 l-41 -21 40 -18 c40 -18 75 -57
91 -101 9 -22 10 -22 27 14 18 39 80 97 102 97 7 0 13 5 13 10 0 6 -6 10 -13
10 -22 0 -89 62 -103 97 -15 34 -24 42 -24 20z"/>
<path d="M4246 4747 c-9 -37 -44 -76 -88 -98 l-41 -21 39 -18 c46 -20 68 -43
88 -90 13 -31 15 -33 22 -15 14 41 58 88 97 105 l39 18 -36 17 c-38 18 -96 80
-96 102 0 23 -18 23 -24 0z"/>
<path d="M6095 4736 c-18 -38 -80 -96 -102 -96 -24 0 -13 -17 17 -30 34 -14
77 -61 92 -99 l10 -26 14 35 c20 47 42 70 88 90 l39 18 -39 20 c-47 24 -68 46
-87 91 l-15 34 -17 -37z"/>
<path d="M6468 4739 c-16 -36 -82 -99 -105 -99 -7 0 -13 -4 -13 -10 0 -5 6
-10 13 -10 22 0 84 -58 102 -97 17 -36 18 -36 27 -14 16 44 51 83 91 101 l40
18 -41 21 c-41 21 -74 59 -91 102 -8 23 -9 23 -23 -12z"/>
<path d="M7210 4741 c-14 -34 -85 -101 -107 -101 -7 0 -13 -4 -13 -10 0 -5 6
-10 13 -10 21 0 86 -60 107 -98 10 -21 19 -30 20 -22 0 30 49 88 91 108 l41
21 -40 20 c-40 21 -75 59 -90 101 -8 22 -9 22 -22 -9z"/>
<path d="M7581 4741 c-15 -35 -84 -101 -106 -101 -8 0 -15 -4 -15 -10 0 -5 6
-10 13 -10 21 0 86 -60 107 -98 10 -21 19 -30 20 -22 0 30 49 88 91 108 l41
21 -40 20 c-40 21 -75 59 -90 101 -8 22 -9 22 -21 -9z"/>
<path d="M9061 4741 c-15 -35 -84 -101 -106 -101 -8 0 -15 -4 -15 -10 0 -5 6
-10 13 -10 21 0 86 -60 106 -97 l18 -36 10 29 c13 36 70 93 100 100 24 7 32
24 10 24 -27 0 -85 51 -104 91 l-20 41 -12 -31z"/>
<path d="M9431 4742 c-15 -36 -83 -102 -106 -102 -8 0 -15 -4 -15 -10 0 -5 6
-10 13 -10 22 0 93 -67 107 -101 l13 -31 18 34 c20 40 82 98 104 98 24 0 17
17 -8 24 -30 7 -86 64 -101 101 l-12 29 -13 -32z"/>
<path d="M4980 4730 c-14 -33 -58 -75 -90 -85 -29 -9 -25 -17 17 -40 32 -17
68 -58 87 -98 5 -9 7 -9 12 0 20 43 55 81 92 100 l44 22 -40 20 c-41 21 -77
58 -87 92 -9 27 -21 24 -35 -11z"/>
<path d="M5360 4747 c0 -22 -58 -84 -96 -102 l-37 -17 34 -15 c45 -19 67 -40
91 -87 l20 -40 15 34 c19 47 41 70 87 90 l39 18 -41 21 c-41 21 -77 58 -87 92
-7 21 -25 26 -25 6z"/>
<path d="M536 4359 c-13 -29 -33 -51 -68 -72 l-49 -30 28 -13 c35 -15 88 -71
98 -103 7 -25 8 -24 26 11 20 40 82 98 104 98 23 0 18 17 -7 24 -33 9 -65 39
-91 85 l-23 41 -18 -41z"/>
<path d="M906 4359 c-13 -29 -33 -50 -68 -72 l-49 -30 28 -13 c35 -15 88 -71
98 -103 7 -25 8 -24 26 11 19 38 85 98 106 98 7 0 13 5 13 10 0 6 -7 10 -15
10 -21 0 -84 58 -103 97 l-18 34 -18 -42z"/>
<path d="M2030 4390 c0 -29 -51 -90 -91 -111 l-41 -20 41 -21 c42 -20 91 -78
91 -108 1 -8 10 1 20 22 21 38 86 98 107 98 7 0 13 5 13 10 0 6 -7 10 -15 10
-22 0 -83 58 -105 99 -11 20 -19 29 -20 21z"/>
<path d="M2400 4390 c0 -29 -51 -90 -91 -111 l-41 -20 41 -21 c42 -20 91 -78
91 -108 1 -8 10 1 20 22 21 38 86 98 107 98 7 0 13 5 13 10 0 6 -7 10 -15 10
-22 0 -83 58 -105 99 -11 20 -19 29 -20 21z"/>
<path d="M2770 4390 c0 -29 -51 -90 -91 -111 l-41 -20 41 -21 c42 -20 91 -79
91 -107 0 -8 13 6 29 31 28 44 78 88 100 88 6 0 11 5 11 10 0 6 -7 10 -15 10
-22 0 -83 58 -105 99 -11 20 -19 29 -20 21z"/>
<path d="M3876 4377 c-9 -37 -44 -76 -88 -98 l-41 -21 40 -18 c40 -18 75 -56
92 -101 l9 -24 10 26 c15 39 58 85 92 99 32 13 40 30 15 30 -20 0 -105 85
-105 104 0 25 -18 27 -24 3z"/>
<path d="M6102 4379 c-15 -39 -58 -85 -98 -104 l-36 -17 39 -18 c39 -17 82
-64 98 -105 7 -19 7 -19 16 4 18 45 52 83 92 101 l40 18 -39 20 c-47 24 -68
46 -88 92 l-14 35 -10 -26z"/>
<path d="M6467 4369 c-15 -36 -81 -99 -104 -99 -24 0 -13 -17 17 -30 34 -14
77 -61 91 -99 10 -24 10 -24 30 17 21 42 57 74 100 91 23 8 22 9 -16 29 -48
24 -69 46 -89 92 l-14 34 -15 -35z"/>
<path d="M8321 4371 c-15 -35 -84 -101 -106 -101 -8 0 -15 -4 -15 -10 0 -5 6
-10 13 -10 22 0 93 -67 107 -101 l13 -31 19 39 c20 42 47 67 92 87 l30 14 -41
21 c-41 20 -75 59 -91 101 -8 22 -9 22 -21 -9z"/>
<path d="M8691 4371 c-15 -35 -84 -101 -106 -101 -8 0 -15 -4 -15 -10 0 -5 6
-10 13 -10 21 0 86 -60 106 -97 l18 -36 10 29 c13 36 59 83 97 99 l30 13 -41
21 c-41 20 -75 59 -91 101 -8 22 -9 22 -21 -9z"/>
<path d="M9431 4372 c-16 -39 -68 -91 -98 -98 -26 -7 -31 -24 -8 -24 22 0 91
-66 105 -101 l13 -31 15 28 c21 42 63 85 96 99 l29 12 -42 24 c-41 23 -66 52
-86 98 l-11 25 -13 -32z"/>
<path d="M4990 4377 c0 -22 -58 -84 -95 -101 l-36 -18 43 -21 c37 -19 72 -57
92 -100 5 -9 7 -9 12 0 20 43 55 81 92 100 l43 21 -36 18 c-37 17 -95 79 -95
101 0 7 -4 13 -10 13 -5 0 -10 -6 -10 -13z"/>
<path d="M1290 4020 c0 -29 -51 -90 -92 -111 l-42 -21 30 -13 c36 -16 89 -72
99 -104 7 -25 8 -24 26 11 19 38 85 98 106 98 7 0 13 5 13 10 0 6 -7 10 -15
10 -22 0 -83 58 -105 99 -11 20 -19 29 -20 21z"/>
<path d="M1660 4020 c0 -29 -51 -90 -92 -111 l-42 -21 30 -13 c38 -16 84 -63
97 -99 l10 -29 18 34 c20 40 52 72 93 92 l28 15 -28 15 c-35 18 -76 61 -97
102 -9 17 -16 23 -17 15z"/>
<path d="M6100 4005 c-15 -41 -58 -84 -100 -102 l-34 -15 34 -14 c45 -20 68
-41 92 -88 l19 -38 21 41 c20 41 55 73 99 90 23 9 23 9 4 16 -41 16 -88 59
-105 99 l-19 40 -11 -29z"/>
<path d="M6470 4005 c-15 -41 -58 -84 -99 -102 l-34 -15 40 -18 c39 -17 83
-64 97 -104 6 -17 10 -13 27 22 21 42 57 74 100 91 23 8 22 9 -16 29 -48 24
-69 46 -89 92 l-14 35 -12 -30z"/>
<path d="M7211 4003 c-16 -38 -67 -88 -105 -103 l-29 -11 44 -22 c28 -14 56
-39 77 -71 17 -26 32 -42 32 -34 0 27 50 86 91 106 l41 21 -40 20 c-40 21 -75
59 -90 101 -8 22 -9 22 -21 -7z"/>
<path d="M7581 4001 c-15 -35 -84 -101 -106 -101 -26 0 -17 -14 23 -35 20 -11
52 -42 70 -69 17 -26 32 -42 32 -34 0 27 50 86 91 106 l41 21 -40 20 c-40 21
-75 59 -90 101 -8 22 -9 22 -21 -9z"/>
<path d="M7951 4001 c-15 -35 -84 -101 -106 -101 -8 0 -15 -4 -15 -10 0 -5 6
-10 13 -10 22 0 93 -67 107 -100 l13 -32 13 31 c16 37 58 79 98 96 l30 13 -41
21 c-41 20 -75 59 -91 101 -8 22 -9 22 -21 -9z"/>
<path d="M8326 4012 c-11 -32 -63 -90 -99 -108 l-29 -16 28 -15 c41 -20 73
-52 93 -92 l18 -34 10 29 c13 36 59 83 97 99 l30 13 -41 21 c-42 21 -75 59
-92 102 l-8 24 -7 -23z"/>
<path d="M4240 3990 c-14 -34 -60 -77 -99 -92 l-26 -10 24 -9 c45 -17 83 -52
101 -92 l18 -40 20 39 c24 47 46 68 91 87 l34 15 -37 17 c-38 18 -96 80 -96
102 0 24 -17 13 -30 -17z"/>
<path d="M4610 3990 c-14 -34 -61 -77 -99 -92 -25 -9 -25 -9 14 -27 47 -21 69
-44 88 -91 l15 -34 20 40 c24 47 46 68 91 87 l34 15 -37 17 c-38 18 -96 80
-96 102 0 24 -17 13 -30 -17z"/>
<path d="M4990 4007 c0 -22 -58 -84 -95 -101 l-36 -18 43 -21 c37 -19 72 -57
92 -100 5 -9 7 -9 12 0 20 43 55 81 92 100 l43 21 -36 18 c-37 17 -95 79 -95
101 0 7 -4 13 -10 13 -5 0 -10 -6 -10 -13z"/>
<path d="M7144 3681 c-131 -60 -137 -245 -10 -322 77 -47 205 -9 246 72 21 41
24 42 78 22 6 -3 12 -1 12 5 0 6 2 17 5 24 4 10 -7 20 -35 31 -29 11 -40 21
-40 37 0 47 -58 119 -113 139 -42 16 -97 13 -143 -8z"/>
<path d="M545 3639 c-13 -42 -45 -79 -87 -100 l-40 -21 28 -14 c41 -21 73 -53
93 -93 l18 -33 12 30 c14 34 54 74 93 95 l28 14 -44 28 c-27 17 -54 46 -69 73
-24 43 -25 44 -32 21z"/>
<path d="M920 3650 c0 -29 -51 -90 -92 -111 l-42 -21 30 -13 c36 -16 89 -72
99 -104 8 -25 8 -25 25 10 21 39 53 71 92 92 l28 14 -44 28 c-27 17 -54 46
-70 74 -14 25 -26 39 -26 31z"/>
<path d="M1290 3650 c0 -29 -51 -90 -92 -111 l-42 -21 30 -13 c36 -16 89 -72
99 -104 7 -25 8 -24 26 11 22 43 85 98 114 98 16 1 14 4 -11 18 -55 31 -73 47
-98 93 -14 24 -26 37 -26 29z"/>
<path d="M1660 3650 c0 -29 -51 -90 -92 -111 l-42 -21 30 -13 c38 -16 84 -63
97 -99 l10 -29 18 36 c22 42 86 97 114 97 15 1 12 5 -15 20 -41 21 -81 62
-103 105 -9 17 -16 23 -17 15z"/>
<path d="M2400 3650 c0 -29 -51 -90 -91 -111 l-41 -20 41 -21 c41 -20 91 -79
91 -106 0 -8 15 8 33 34 20 31 48 57 74 70 l43 22 -29 12 c-33 13 -82 63 -104
105 -9 17 -16 23 -17 15z"/>
<path d="M2770 3650 c0 -30 -51 -90 -93 -111 -40 -21 -41 -22 -18 -30 43 -17
79 -49 100 -91 17 -35 21 -39 27 -22 14 39 58 87 96 104 l39 17 -29 12 c-34
14 -83 63 -105 106 -9 17 -16 23 -17 15z"/>
<path d="M5732 3639 c-16 -40 -63 -91 -101 -106 l-35 -15 34 -14 c46 -20 68
-41 92 -88 l20 -39 18 40 c18 40 56 74 101 92 23 9 23 9 4 16 -41 16 -88 59
-105 99 -19 40 -19 40 -28 15z"/>
<path d="M9051 3614 c-16 -30 -39 -54 -68 -71 l-44 -25 28 -15 c40 -21 72 -53
93 -92 17 -35 17 -35 25 -10 10 32 63 88 99 104 l30 13 -41 21 c-41 20 -75 59
-91 100 -6 18 -10 16 -31 -25z"/>
<path d="M5360 3637 c0 -23 -63 -89 -99 -105 -35 -14 -35 -15 -12 -23 43 -17
81 -50 102 -91 l21 -41 18 40 c18 40 57 75 101 91 22 9 22 10 -14 27 -39 18
-97 80 -97 102 0 7 -4 13 -10 13 -5 0 -10 -6 -10 -13z"/>
<path d="M6923 3480 c-45 -20 -49 -26 -34 -49 7 -11 16 -11 55 4 47 18 50 22
40 49 -8 20 -10 20 -61 -4z"/>
<path d="M7530 3449 c-7 -11 -10 -22 -8 -23 71 -39 85 -45 96 -34 20 20 14 33
-27 56 -47 27 -48 27 -61 1z"/>
<path d="M6776 3400 c-21 -16 -40 -31 -42 -33 -2 -2 4 -11 14 -20 17 -15 21
-15 55 10 39 28 45 44 24 61 -9 8 -23 3 -51 -18z"/>
<path d="M7670 3361 c-8 -16 -4 -24 29 -50 37 -30 39 -30 55 -12 16 18 15 20
-22 50 -47 36 -48 37 -62 12z"/>
<path d="M6652 3287 c-36 -37 -40 -52 -14 -65 13 -7 24 0 49 28 31 36 32 38
15 53 -17 16 -20 15 -50 -16z"/>
<path d="M3506 3267 c-9 -37 -50 -82 -93 -102 -36 -17 -36 -18 -14 -27 43 -16
79 -48 99 -89 l21 -41 20 41 c21 40 82 91 111 91 8 1 -1 9 -20 20 -41 21 -81
63 -102 104 l-15 29 -7 -26z"/>
<path d="M3865 3246 c-13 -26 -38 -53 -69 -73 -26 -18 -42 -33 -34 -33 27 0
86 -50 106 -91 l21 -41 20 41 c21 40 82 91 111 91 8 1 -1 9 -21 20 -40 21 -99
83 -99 105 0 29 -16 21 -35 -19z"/>
<path d="M9420 3244 c-17 -33 -38 -54 -74 -75 -35 -20 -44 -29 -30 -29 28 0
98 -62 114 -101 l13 -31 18 33 c20 40 52 72 93 93 l28 14 -39 20 c-45 23 -57
36 -81 86 l-17 35 -25 -45z"/>
<path d="M5360 3267 c0 -21 -60 -86 -98 -107 -21 -10 -30 -19 -22 -20 29 0 90
-51 111 -92 l21 -41 18 40 c18 40 57 75 101 92 23 8 23 9 -12 23 -36 16 -99
82 -99 105 0 7 -4 13 -10 13 -5 0 -10 -6 -10 -13z"/>
<path d="M7788 3247 c-15 -10 -14 -15 14 -54 26 -35 34 -41 49 -32 24 13 24
17 -6 62 -28 40 -31 42 -57 24z"/>
<path d="M6551 3144 c-12 -24 -19 -48 -16 -54 13 -22 42 -9 60 28 11 20 21 40
22 43 2 3 -7 10 -20 16 -23 11 -26 8 -46 -33z"/>
<path d="M7878 3108 c-14 -12 -14 -17 4 -55 18 -42 31 -50 55 -35 8 5 6 20 -9
55 -22 51 -26 53 -50 35z"/>
<path d="M6490 3004 c-6 -14 -10 -29 -10 -33 0 -4 -20 -12 -44 -19 -191 -51
-172 -325 25 -356 61 -10 134 26 170 83 38 59 41 141 6 192 -20 30 -71 72 -97
81 -6 2 -7 15 -1 35 7 25 6 33 -6 37 -26 10 -33 7 -43 -20z"/>
<path d="M1605 2949 c-40 -11 -93 -67 -110 -115 -14 -41 -23 -49 -67 -59 -23
-4 -26 -8 -19 -27 7 -19 15 -22 45 -20 28 3 38 -1 43 -15 24 -68 96 -115 174
-115 56 1 97 20 132 61 119 142 -18 343 -198 290z"/>
<path d="M7142 2939 c-65 -33 -97 -87 -97 -165 0 -55 4 -67 31 -101 43 -53 83
-74 143 -75 105 0 183 78 183 183 -1 132 -143 218 -260 158z"/>
<path d="M7882 2939 c-132 -65 -131 -257 0 -325 26 -13 29 -20 24 -44 -4 -23
-1 -30 15 -35 24 -8 24 -8 36 30 7 21 18 31 39 36 76 15 123 60 143 137 16 57
0 112 -46 162 -55 62 -135 76 -211 39z"/>
<path d="M3506 2896 c-9 -36 -51 -81 -93 -101 -36 -17 -36 -18 -14 -27 43 -16
79 -48 99 -89 l21 -41 20 41 c21 40 82 91 111 91 8 1 -1 9 -21 20 -40 21 -99
83 -99 105 0 25 -18 26 -24 1z"/>
<path d="M3880 2905 c0 -28 -40 -75 -88 -106 -25 -16 -39 -29 -31 -29 28 0 87
-49 107 -91 l21 -41 20 41 c21 40 82 91 111 91 8 1 -1 9 -21 20 -40 21 -99 83
-99 105 0 7 -4 17 -10 20 -5 3 -10 -1 -10 -10z"/>
<path d="M9435 2899 c-12 -38 -43 -72 -91 -100 -43 -25 -44 -27 -20 -33 35 -9
84 -52 105 -93 l18 -35 13 31 c16 39 86 101 114 101 15 1 7 8 -25 25 -52 27
-62 38 -88 91 -18 37 -19 37 -26 13z"/>
<path d="M4620 2897 c0 -21 -60 -86 -98 -107 -21 -10 -30 -19 -22 -20 30 0 88
-49 108 -91 l21 -41 20 41 c21 40 82 91 111 91 8 1 -1 10 -22 20 -38 21 -98
86 -98 107 0 7 -4 13 -10 13 -5 0 -10 -6 -10 -13z"/>
<path d="M1906 2753 c-9 -21 0 -29 48 -42 44 -12 56 -8 56 19 0 33 -93 54
-104 23z"/>
<path d="M1279 2734 c-29 -12 -36 -19 -31 -36 5 -21 27 -21 84 1 20 7 25 15
21 30 -6 25 -24 26 -74 5z"/>
<path d="M2067 2713 c-17 -16 -4 -35 36 -53 39 -18 43 -18 55 -3 18 24 16 27
-23 46 -38 18 -58 21 -68 10z"/>
<path d="M1130 2669 c-19 -12 -36 -23 -38 -24 -2 -2 2 -12 9 -23 l13 -20 40
20 c52 26 49 23 41 47 -8 26 -21 26 -65 0z"/>
<path d="M2213 2630 c-11 -17 -8 -22 33 -46 25 -14 46 -25 47 -23 2 2 8 12 15
21 12 14 8 20 -31 42 -52 31 -49 31 -64 6z"/>
<path d="M992 2579 c-37 -27 -41 -34 -30 -48 7 -9 13 -18 15 -20 3 -4 83 52
83 60 0 3 -6 13 -13 22 -11 16 -15 15 -55 -14z"/>
<path d="M2351 2536 c-10 -12 -5 -21 26 -50 35 -32 39 -33 56 -18 17 15 16 17
-15 49 -35 36 -49 40 -67 19z"/>
<path d="M6098 2520 c-17 -39 -58 -80 -103 -103 -16 -9 -23 -16 -15 -17 29 0
90 -51 111 -91 l20 -41 21 41 c20 42 79 91 107 91 8 0 -6 13 -31 29 -47 30
-83 72 -90 106 -4 17 -7 14 -20 -15z"/>
<path d="M9051 2504 c-18 -32 -39 -54 -74 -74 -46 -26 -47 -28 -23 -34 35 -9
91 -60 106 -97 l13 -31 15 28 c22 44 53 75 95 94 l37 17 -41 18 c-41 19 -81
61 -96 103 -8 20 -10 18 -32 -24z"/>
<path d="M3880 2529 c0 -22 -44 -72 -88 -100 -25 -16 -39 -29 -31 -29 28 0 87
-49 107 -91 l21 -41 20 41 c21 40 82 91 111 91 8 1 -1 9 -21 20 -41 22 -99 83
-99 105 0 8 -4 15 -10 15 -5 0 -10 -5 -10 -11z"/>
<path d="M4250 2527 c0 -21 -60 -86 -98 -107 -21 -10 -30 -19 -22 -20 30 0 88
-49 108 -91 l21 -41 20 41 c21 40 82 91 111 91 8 1 -1 9 -21 20 -41 22 -99 83
-99 105 0 8 -4 15 -10 15 -5 0 -10 -6 -10 -13z"/>
<path d="M5360 2525 c0 -22 -58 -83 -99 -105 -20 -11 -29 -19 -21 -20 29 0 90
-51 111 -91 l20 -41 21 41 c20 42 78 91 108 91 8 1 -1 10 -22 20 -38 21 -98
86 -98 107 0 7 -4 13 -10 13 -5 0 -10 -7 -10 -15z"/>
<path d="M6511 2531 c-11 -7 -9 -17 7 -55 22 -49 32 -55 52 -31 10 13 10 23
-5 55 -18 40 -29 47 -54 31z"/>
<path d="M860 2465 c-32 -33 -33 -36 -17 -52 16 -17 19 -15 54 19 31 31 35 39
24 52 -18 22 -23 21 -61 -19z"/>
<path d="M7855 2444 c-22 -37 -25 -48 -14 -55 26 -16 38 -9 59 31 24 48 24 47
1 60 -17 8 -23 3 -46 -36z"/>
<path d="M2470 2425 c-10 -11 -6 -22 21 -53 28 -34 36 -38 51 -28 24 15 23 20
-13 61 -35 39 -41 41 -59 20z"/>
<path d="M6598 2389 c-25 -14 -22 -30 11 -69 27 -32 31 -34 46 -19 16 15 15
19 -10 58 -15 22 -28 41 -29 41 0 0 -9 -5 -18 -11z"/>
<path d="M751 2338 c-30 -41 -30 -42 -10 -56 11 -8 21 -12 23 -11 65 88 64 84
37 99 -16 8 -24 3 -50 -32z"/>
<path d="M7760 2309 c-31 -39 -31 -41 -14 -54 17 -13 22 -11 52 20 37 40 39
50 13 64 -15 9 -24 3 -51 -30z"/>
<path d="M2578 2297 c-16 -12 -15 -16 8 -55 28 -46 27 -46 54 -32 19 10 18 12
-8 55 -30 50 -30 50 -54 32z"/>
<path d="M6696 2251 c-16 -18 -15 -20 25 -52 40 -31 42 -32 55 -14 12 16 11
22 -9 43 -36 38 -52 44 -71 23z"/>
<path d="M661 2193 c-18 -37 -20 -48 -9 -54 24 -16 34 -9 56 36 21 44 21 45 2
55 -26 14 -23 15 -49 -37z"/>
<path d="M7647 2203 c-39 -28 -45 -44 -23 -62 10 -9 22 -4 52 20 21 17 40 32
42 33 1 2 -6 10 -16 19 -17 15 -21 15 -55 -10z"/>
<path d="M1555 2209 c-79 -16 -204 -81 -262 -137 -114 -109 -175 -247 -177
-396 -1 -162 48 -281 164 -396 115 -115 234 -165 395 -164 316 3 570 283 541
596 -20 222 -167 408 -375 478 -75 25 -211 34 -286 19z"/>
<path d="M7141 2198 c-29 -14 -53 -36 -70 -65 -24 -40 -29 -43 -58 -38 -26 5
-33 2 -38 -15 -8 -25 -9 -24 30 -37 24 -8 32 -18 43 -55 25 -88 127 -151 210
-129 85 24 131 76 147 168 11 69 -39 145 -117 178 -51 21 -95 19 -147 -7z"/>
<path d="M9435 2158 c-13 -41 -52 -84 -94 -103 l-41 -18 37 -17 c42 -19 73
-50 96 -94 14 -29 15 -29 21 -8 12 36 58 84 99 102 37 17 38 18 16 25 -41 12
-86 52 -107 95 -19 39 -21 40 -27 18z"/>
<path d="M3880 2157 c0 -21 -60 -86 -98 -107 -21 -10 -30 -19 -22 -20 30 0 88
-49 108 -91 l21 -41 20 41 c21 40 82 91 111 91 8 1 -1 9 -21 20 -41 22 -99 83
-99 105 0 8 -4 15 -10 15 -5 0 -10 -6 -10 -13z"/>
<path d="M4620 2157 c0 -21 -60 -86 -98 -107 -21 -10 -30 -19 -22 -20 30 0 88
-49 108 -91 l21 -41 20 41 c21 40 82 91 111 91 8 1 -1 9 -21 20 -41 22 -99 83
-99 105 0 8 -4 15 -10 15 -5 0 -10 -6 -10 -13z"/>
<path d="M4990 2157 c0 -21 -60 -86 -98 -107 -21 -10 -30 -19 -21 -20 30 0 97
-58 110 -94 13 -35 29 -48 29 -23 0 26 51 85 90 104 l40 21 -30 12 c-33 14
-100 85 -100 107 0 7 -4 13 -10 13 -5 0 -10 -6 -10 -13z"/>
<path d="M5360 2155 c0 -22 -58 -83 -99 -105 -20 -11 -29 -19 -21 -20 29 0 90
-51 111 -91 l20 -41 21 41 c20 42 78 91 108 91 8 1 -1 10 -22 20 -38 21 -98
86 -98 107 0 7 -4 13 -10 13 -5 0 -10 -7 -10 -15z"/>
<path d="M6100 2155 c0 -22 -58 -83 -99 -105 -20 -11 -29 -19 -21 -20 29 0 90
-51 111 -91 l20 -41 21 41 c21 43 55 73 97 86 25 7 24 8 -11 26 -38 19 -98 85
-98 106 0 7 -4 13 -10 13 -5 0 -10 -7 -10 -15z"/>
<path d="M6825 2149 c-8 -24 -11 -21 42 -48 l42 -21 11 21 c7 11 10 22 8 23
-19 14 -81 46 -88 46 -5 0 -12 -9 -15 -21z"/>
<path d="M2663 2153 c-17 -6 -16 -26 4 -68 13 -28 21 -34 37 -29 30 9 30 8 7
58 -20 46 -24 49 -48 39z"/>
<path d="M7503 2122 c-44 -17 -50 -26 -34 -51 8 -12 16 -12 55 3 47 18 51 23
40 50 -7 18 -6 19 -61 -2z"/>
<path d="M596 2043 c-15 -45 -15 -49 0 -60 23 -17 30 -11 47 42 15 42 15 46
-3 55 -27 14 -27 15 -44 -37z"/>
<path d="M2710 1973 c1 -15 6 -40 13 -54 10 -22 16 -25 34 -18 21 8 21 10 10
51 -10 32 -18 44 -35 46 -18 3 -22 -1 -22 -25z"/>
<path d="M554 1890 c-6 -34 -10 -39 -48 -50 -45 -13 -90 -50 -112 -92 -23 -44
-18 -139 9 -179 63 -94 183 -113 268 -42 37 31 69 95 69 138 0 65 -64 158
-119 172 -21 5 -22 10 -17 43 5 34 4 38 -19 42 -23 5 -26 1 -31 -32z"/>
<path d="M2710 1835 c-73 -33 -111 -89 -112 -164 0 -78 47 -150 115 -174 12
-4 17 -17 17 -42 0 -31 3 -35 25 -35 20 0 25 5 25 24 0 27 14 41 53 50 15 4
45 23 67 42 61 56 76 134 40 210 -40 82 -150 125 -230 89z"/>
<path d="M6841 1783 c-18 -42 -45 -71 -93 -98 -24 -14 -36 -25 -28 -25 29 0
90 -51 111 -92 l21 -42 13 30 c16 36 72 89 104 99 l25 8 -30 14 c-44 23 -75
54 -94 96 l-17 38 -12 -28z"/>
<path d="M7940 1763 c-16 -31 -38 -53 -71 -72 l-48 -27 34 -13 c38 -13 83 -61
98 -104 l10 -29 17 39 c18 41 66 87 102 99 21 6 21 7 -8 21 -44 23 -75 54 -93
95 l-17 36 -24 -45z"/>
<path d="M8680 1763 c-17 -31 -38 -53 -73 -73 -46 -26 -47 -28 -23 -34 37 -9
87 -55 106 -99 17 -37 18 -38 24 -14 9 38 55 88 99 107 37 17 38 18 16 25 -41
13 -91 56 -108 95 l-17 38 -24 -45z"/>
<path d="M9052 1765 c-16 -33 -35 -52 -72 -73 -48 -28 -50 -30 -26 -36 37 -9
87 -55 106 -99 17 -37 18 -38 24 -14 9 38 55 88 99 107 37 17 38 18 16 25 -41
12 -86 52 -106 94 l-20 39 -21 -43z"/>
<path d="M4250 1787 c0 -21 -60 -87 -98 -106 -35 -18 -36 -19 -11 -26 42 -13
76 -43 97 -86 l21 -41 20 41 c21 40 82 91 111 91 8 1 -1 9 -21 20 -41 22 -99
83 -99 105 0 8 -4 15 -10 15 -5 0 -10 -6 -10 -13z"/>
<path d="M4990 1785 c0 -22 -66 -91 -100 -105 l-30 -12 40 -21 c39 -19 90 -78
90 -104 0 -7 5 -13 10 -13 6 0 10 6 10 13 0 26 51 85 90 104 l40 21 -30 12
c-34 14 -100 83 -100 105 0 8 -4 15 -10 15 -5 0 -10 -7 -10 -15z"/>
<path d="M6097 1774 c-18 -35 -61 -76 -102 -97 -16 -9 -23 -16 -15 -17 29 0
90 -51 111 -92 l21 -42 14 30 c20 45 45 72 87 92 l39 19 -30 12 c-35 14 -75
54 -96 95 l-14 28 -15 -28z"/>
<path d="M6842 1415 c-19 -44 -45 -72 -94 -100 -24 -14 -36 -25 -28 -25 29 0
90 -51 111 -92 l21 -40 14 28 c22 41 61 81 96 95 l30 12 -35 19 c-40 20 -89
76 -97 110 -5 21 -6 21 -18 -7z"/>
<path d="M7570 1393 c-17 -32 -38 -53 -74 -74 -28 -16 -44 -29 -35 -29 30 0
97 -58 115 -99 l18 -40 16 37 c18 40 66 86 102 98 21 6 21 7 -8 21 -44 23 -75
54 -93 95 l-17 36 -24 -45z"/>
<path d="M7940 1393 c-17 -32 -38 -53 -74 -74 -28 -16 -44 -29 -35 -29 30 0
97 -58 115 -99 l18 -41 13 32 c19 45 51 77 96 98 37 17 38 18 14 24 -37 9 -88
55 -106 97 l-17 37 -24 -45z"/>
<path d="M8307 1389 c-20 -36 -39 -55 -72 -71 l-44 -22 38 -17 c40 -18 83 -67
96 -108 7 -24 8 -24 22 10 19 46 51 78 97 99 l38 18 -34 11 c-41 13 -82 53
-100 97 l-13 32 -28 -49z"/>
<path d="M9065 1419 c-13 -42 -52 -84 -94 -104 l-41 -18 37 -17 c45 -21 77
-53 96 -99 l14 -33 7 25 c9 38 55 88 99 107 37 17 38 18 16 25 -42 13 -91 56
-109 98 -17 37 -18 38 -25 16z"/>
<path d="M9435 1419 c-13 -42 -52 -84 -94 -104 l-41 -18 37 -17 c45 -21 77
-53 96 -99 l14 -33 7 25 c9 38 55 88 99 107 37 17 38 18 16 25 -42 13 -91 56
-109 98 -17 37 -18 38 -25 16z"/>
<path d="M572 1421 c-10 -6 -11 -17 -1 -54 11 -46 21 -55 47 -38 10 6 11 17 1
54 -11 46 -21 55 -47 38z"/>
<path d="M3510 1417 c0 -21 -60 -87 -98 -106 -35 -18 -36 -19 -11 -26 32 -10
88 -63 104 -99 l13 -30 21 42 c21 41 82 92 111 92 8 0 -6 12 -31 26 -28 16
-57 43 -74 70 -30 47 -35 52 -35 31z"/>
<path d="M3880 1417 c0 -21 -60 -87 -98 -106 -35 -18 -36 -19 -11 -26 32 -10
88 -63 104 -99 l13 -30 21 42 c21 41 82 92 111 92 8 1 -1 9 -21 20 -41 22 -99
83 -99 105 0 8 -4 15 -10 15 -5 0 -10 -6 -10 -13z"/>
<path d="M4990 1415 c0 -21 -58 -84 -97 -103 l-34 -18 41 -18 c39 -17 90 -76
90 -103 0 -7 5 -13 10 -13 6 0 10 6 10 13 0 27 51 86 90 103 l41 18 -34 18
c-39 19 -97 82 -97 103 0 8 -4 15 -10 15 -5 0 -10 -7 -10 -15z"/>
<path d="M5360 1415 c0 -21 -58 -84 -97 -103 l-34 -18 42 -18 c29 -13 50 -33
72 -67 l30 -49 19 40 c21 42 56 72 97 85 25 7 24 8 -11 26 -38 19 -98 85 -98
106 0 7 -4 13 -10 13 -5 0 -10 -7 -10 -15z"/>
<path d="M5730 1415 c0 -22 -58 -83 -99 -105 -20 -11 -29 -19 -21 -20 29 0 90
-51 111 -92 l21 -42 13 30 c16 38 63 84 99 97 l29 10 -36 18 c-37 20 -97 85
-97 106 0 7 -4 13 -10 13 -5 0 -10 -7 -10 -15z"/>
<path d="M6096 1408 c-9 -34 -39 -65 -88 -93 -24 -14 -36 -25 -28 -25 29 0 90
-51 111 -92 l21 -42 13 30 c16 36 72 89 104 99 25 7 24 8 -11 26 -38 19 -98
85 -98 106 0 22 -17 14 -24 -9z"/>
<path d="M6455 1386 c-17 -27 -46 -54 -74 -70 -25 -14 -39 -26 -31 -26 29 0
90 -51 111 -92 l21 -42 13 30 c16 36 72 89 104 99 25 8 25 8 -10 25 -39 21
-71 53 -92 92 l-14 28 -28 -44z"/>
<path d="M2696 1324 c-17 -51 -14 -64 14 -64 13 0 23 14 34 47 9 25 15 47 13
48 -1 2 -12 5 -23 9 -19 6 -24 0 -38 -40z"/>
<path d="M621 1261 c-11 -7 -9 -17 8 -55 18 -42 22 -46 41 -36 24 13 25 19 3
65 -17 36 -28 41 -52 26z"/>
<path d="M2629 1168 c-20 -39 -20 -42 -4 -54 23 -17 33 -10 55 40 14 30 16 42
7 48 -24 15 -37 7 -58 -34z"/>
<path d="M702 1116 l-21 -11 25 -43 c26 -43 44 -52 61 -29 7 8 2 25 -16 53
-24 38 -29 41 -49 30z"/>
<path d="M2546 1032 c-31 -45 -31 -48 -7 -61 15 -9 23 -3 50 34 30 42 31 44
12 55 -27 14 -25 15 -55 -28z"/>
<path d="M7570 1023 c-17 -32 -38 -53 -74 -74 -28 -16 -44 -29 -35 -29 30 0
94 -56 113 -99 l19 -41 17 38 c18 40 66 86 102 98 21 6 21 7 -8 21 -44 23 -75
54 -93 95 l-17 36 -24 -45z"/>
<path d="M7940 1024 c-17 -33 -38 -54 -74 -75 -28 -16 -44 -29 -35 -29 30 0
94 -56 113 -99 l19 -41 17 38 c19 43 69 89 107 98 24 6 23 7 -14 24 -45 20
-77 53 -95 97 l-14 32 -24 -45z"/>
<path d="M3880 1047 c0 -21 -60 -87 -98 -106 -35 -18 -36 -19 -11 -26 32 -10
88 -63 104 -99 l13 -30 21 41 c21 43 58 75 100 88 23 7 22 8 -21 32 -27 15
-56 42 -73 69 -30 47 -35 52 -35 31z"/>
<path d="M4620 1045 c0 -22 -58 -84 -98 -104 l-35 -18 29 -10 c36 -13 93 -70
100 -100 8 -30 20 -29 28 1 8 32 62 86 99 99 l30 10 -35 18 c-40 20 -98 82
-98 104 0 8 -4 15 -10 15 -5 0 -10 -7 -10 -15z"/>
<path d="M4990 1045 c0 -22 -58 -84 -98 -104 l-35 -18 30 -10 c37 -13 91 -67
99 -99 3 -13 10 -24 14 -24 4 0 11 11 14 24 8 32 62 86 99 99 l30 10 -35 18
c-40 20 -98 82 -98 104 0 8 -4 15 -10 15 -5 0 -10 -7 -10 -15z"/>
<path d="M5726 1038 c-9 -33 -39 -65 -85 -91 l-41 -23 41 -18 c29 -13 51 -33
72 -68 l30 -49 13 28 c15 35 71 88 103 98 25 7 24 8 -11 26 -38 19 -98 85 -98
106 0 22 -17 14 -24 -9z"/>
<path d="M6455 1016 c-17 -27 -46 -54 -74 -70 -25 -14 -39 -26 -31 -26 29 0
90 -51 111 -92 l21 -42 13 30 c16 36 72 89 104 99 25 8 25 8 -10 25 -39 21
-71 53 -92 92 l-14 28 -28 -44z"/>
<path d="M790 975 c-10 -11 -6 -22 22 -54 33 -40 33 -40 53 -21 19 20 19 20
-15 55 -38 39 -43 41 -60 20z"/>
<path d="M2440 905 c-32 -33 -33 -36 -17 -52 16 -17 19 -15 54 19 31 31 35 39
24 52 -18 22 -23 21 -61 -19z"/>
<path d="M908 854 c-14 -15 -12 -19 24 -52 39 -35 41 -36 54 -17 13 17 11 22
-18 52 -37 38 -38 38 -60 17z"/>
<path d="M2317 797 c-35 -29 -37 -34 -24 -51 14 -19 16 -19 55 13 37 28 40 35
29 52 -15 25 -15 25 -60 -14z"/>
<path d="M1042 758 c-20 -20 -13 -33 30 -58 40 -22 42 -22 55 -5 15 21 13 23
-38 53 -27 16 -38 19 -47 10z"/>
<path d="M1595 721 c-105 -47 -143 -172 -81 -264 48 -71 139 -103 212 -72 55
23 100 70 114 120 11 41 14 43 56 50 45 6 49 11 38 40 -5 13 -15 15 -49 9 -39
-5 -43 -4 -48 18 -14 54 -107 118 -172 118 -16 0 -48 -9 -70 -19z"/>
<path d="M2183 712 c-46 -25 -48 -29 -33 -52 8 -12 15 -11 54 8 49 23 52 28
33 52 -11 14 -17 13 -54 -8z"/>
<path d="M6831 654 c-18 -32 -39 -54 -74 -74 -46 -26 -48 -28 -26 -35 42 -13
79 -45 100 -87 l21 -40 14 28 c22 41 61 81 96 95 l30 12 -35 19 c-39 20 -89
75 -97 108 -4 17 -9 12 -29 -26z"/>
<path d="M8315 660 c-21 -46 -38 -63 -91 -90 -21 -10 -32 -19 -23 -20 30 0 97
-58 115 -99 l18 -41 13 32 c19 45 51 77 96 98 37 17 38 18 14 24 -38 9 -88 55
-107 98 l-17 38 -18 -40z"/>
<path d="M9435 679 c-13 -42 -53 -87 -95 -105 l-40 -18 33 -13 c45 -19 84 -60
98 -101 l12 -35 14 34 c19 46 51 78 97 99 l38 18 -34 11 c-42 14 -82 53 -101
100 -14 34 -15 34 -22 10z"/>
<path d="M1180 669 c-14 -25 -16 -23 41 -47 l47 -20 10 24 c11 22 8 25 -35 44
-55 24 -50 24 -63 -1z"/>
<path d="M3510 677 c0 -22 -67 -93 -101 -107 l-31 -13 33 -18 c40 -20 72 -52
93 -93 l14 -28 21 40 c21 42 58 74 100 87 22 7 20 9 -25 35 -32 18 -57 42 -72
69 -24 43 -32 50 -32 28z"/>
<path d="M4250 675 c0 -22 -58 -84 -98 -104 -35 -18 -36 -19 -11 -26 32 -10
88 -63 104 -99 l12 -29 23 41 c24 43 60 74 99 87 23 7 22 9 -21 32 -27 15 -56
42 -73 69 -30 48 -35 52 -35 29z"/>
<path d="M5360 675 c0 -22 -58 -84 -98 -104 l-35 -18 30 -10 c37 -13 91 -67
99 -99 7 -26 24 -33 24 -9 0 22 66 91 101 106 l31 12 -34 18 c-40 20 -98 82
-98 104 0 8 -4 15 -10 15 -5 0 -10 -7 -10 -15z"/>
<path d="M5719 650 c-16 -28 -41 -52 -73 -70 -45 -26 -47 -28 -25 -35 39 -13
75 -44 99 -87 l23 -41 12 29 c16 36 72 89 104 99 l25 8 -30 14 c-42 22 -84 63
-99 97 l-12 29 -24 -43z"/>
<path d="M6459 650 c-16 -27 -41 -52 -71 -69 l-47 -27 40 -18 c29 -13 51 -33
72 -68 l30 -49 13 28 c14 33 57 74 98 95 l28 15 -30 12 c-34 14 -74 54 -95 94
l-15 28 -23 -41z"/>
<path d="M2033 647 c-41 -16 -46 -21 -38 -46 6 -19 8 -19 46 -6 55 20 58 22
52 45 -6 23 -14 23 -60 7z"/>
<path d="M1340 622 c0 -6 -3 -17 -6 -26 -4 -11 5 -18 36 -26 50 -13 70 -8 70
19 0 14 -9 21 -36 25 -19 4 -42 10 -50 13 -8 3 -14 1 -14 -5z"/>
</g>
</svg>
